<svg xmlns="http://www.w3.org/2000/svg" width="110" height="55" viewBox="0 0 110 55" fill="none"><path fill-rule="evenodd" clip-rule="evenodd" d="M50.2359 0.000432198C50.424 -0.0045403 50.5797 0.0339965 50.5809 0.0849646C50.5822 0.135933 50.1188 0.27392 49.5533 0.38953C48.9865 0.506384 48.1992 0.730146 47.8031 0.88678C47.4069 1.04466 47.0831 1.20005 47.0843 1.23485C47.0856 1.26966 48.2789 1.51456 49.7364 1.78183C51.1926 2.04786 53.0013 2.42079 53.7549 2.60851C54.5086 2.79622 55.5462 3.11073 56.0595 3.30839C56.5739 3.5048 57.6664 4.04929 58.4885 4.51795C59.3107 4.9866 60.3122 5.62806 60.7133 5.94381C61.1157 6.25956 61.6937 6.85378 61.9989 7.26401C62.3041 7.67424 62.6342 8.28958 62.7338 8.63144C62.8322 8.9733 62.912 9.616 62.9107 10.061C62.9095 10.5061 62.8335 11.1488 62.7438 11.4906C62.6529 11.8325 62.4261 12.4478 62.2393 12.8581C62.0524 13.2683 61.5816 14.0179 61.1904 14.5239C60.8005 15.031 60.0332 15.8652 59.4851 16.3773C58.937 16.8908 57.984 17.7025 57.3674 18.1811C56.7508 18.6585 55.7144 19.3969 55.0629 19.8196C54.4114 20.2435 53.2068 20.9645 52.3847 21.4219C51.5625 21.8782 50.1612 22.6079 49.2705 23.0417C48.3798 23.4756 46.8663 24.1693 45.9071 24.5845C44.948 24.9984 43.2102 25.6958 42.0455 26.1334C40.8808 26.571 38.6946 27.3342 37.1874 27.8278C35.6801 28.3225 34.4182 28.6917 34.3846 28.6495C34.3509 28.6072 34.4905 28.4394 34.696 28.2753C34.9015 28.1124 35.5742 27.8004 36.1908 27.5816C36.8074 27.3641 38.3209 26.8233 39.5542 26.3808C40.7874 25.9382 42.6372 25.2396 43.6649 24.8281C44.6926 24.4166 46.4864 23.6173 47.6511 23.0517C48.8158 22.4861 50.5249 21.5649 51.4504 21.003C52.376 20.4411 53.7014 19.5535 54.3977 19.0302C55.0941 18.5068 56.2077 17.6043 56.8729 17.0225C57.5381 16.4407 58.4437 15.5184 58.8847 14.9714C59.3256 14.4244 59.9086 13.5294 60.1802 12.9824C60.4517 12.4354 60.7283 11.6522 60.7943 11.242C60.8778 10.7211 60.8703 10.2525 60.7669 9.6881C60.6772 9.19707 60.4841 8.6849 60.2736 8.38282C60.0843 8.10933 59.4926 7.44923 58.9594 6.91593C58.4263 6.38263 57.5979 5.67654 57.1183 5.34711C56.6387 5.01644 55.91 4.57886 55.4989 4.3725C55.0878 4.16614 54.3865 3.84914 53.9418 3.66889C53.4971 3.4874 52.6276 3.20396 52.011 3.03863C51.3944 2.87329 50.3854 2.65202 49.7688 2.54884C49.1521 2.44441 47.9887 2.3027 45.7203 2.10504L44.0797 3.62787C42.5426 5.05373 41.6482 6.13525 30.0222 20.6276C19.0714 34.2783 17.4097 36.2959 15.9373 37.7243C15.018 38.6156 13.7337 39.7866 13.0834 40.3261C12.4319 40.8669 11.4229 41.6177 10.8412 41.9944C10.2582 42.3723 9.33391 42.8907 8.78581 43.148C8.23771 43.4041 7.34082 43.7335 6.79271 43.8802C6.15243 44.0518 5.37388 44.1537 4.61277 44.1661C3.96128 44.1761 3.03698 44.1027 2.55739 44.0033C2.07781 43.9038 1.4749 43.6801 1.21704 43.5061C0.959184 43.332 0.57925 42.9392 0.372467 42.6309C0.143261 42.289 -0.00123769 41.9148 7.98991e-06 41.6675C0.00249936 41.3679 0.0598008 41.2635 0.221739 41.2622C0.341325 41.261 0.622849 41.3032 0.847072 41.3554C1.24195 41.4462 1.25566 41.4711 1.25316 42.0715C1.25067 42.478 1.33663 42.8323 1.49856 43.0971C1.63559 43.3196 1.94327 43.5856 2.18369 43.6875C2.47352 43.8119 3.04446 43.8748 3.8965 43.8765C4.8507 43.879 5.39381 43.8119 6.04531 43.6142C6.52489 43.4675 7.22497 43.1928 7.60241 43.0026C7.9786 42.8124 8.76338 42.3164 9.34636 41.8999C9.9281 41.4835 11.1003 40.5126 11.9486 39.7419C13.1083 38.6914 14.3503 37.324 16.9313 34.2584C18.8235 32.0121 24.8265 24.6305 30.2738 17.8542C39.0497 6.93706 40.3265 5.40181 41.485 4.37001C42.2037 3.7298 43.1779 2.94415 44.5033 2.04289L43.275 1.94841C42.5986 1.89744 41.12 1.88749 39.9902 1.92603C38.8603 1.96581 37.1226 2.08142 36.1285 2.18212C35.1345 2.28281 33.5375 2.50036 32.5783 2.66569C31.6192 2.83103 29.9088 3.19775 28.779 3.48118C27.6492 3.76461 25.8267 4.30537 24.7305 4.68079C23.6343 5.05746 21.9527 5.70016 20.9935 6.1079C20.0343 6.51689 18.2966 7.33486 17.1319 7.92659C15.9672 8.51832 14.1323 9.53395 13.0535 10.1841C11.9748 10.8343 10.4949 11.8412 9.76367 12.423C9.0337 13.0035 7.92629 13.9856 7.30344 14.6034C6.67936 15.2212 5.78994 16.2282 5.32655 16.841C4.86191 17.4539 4.20419 18.5143 3.86412 19.198C3.5228 19.8817 3.12418 20.8886 2.97844 21.4356C2.77913 22.1778 2.70688 22.8242 2.69691 23.984C2.68196 25.477 2.69691 25.569 3.06688 26.346C3.2774 26.7898 3.7545 27.4834 4.12571 27.8862C4.49568 28.2902 5.10731 28.8272 5.48475 29.0821C5.86094 29.3357 6.50621 29.7111 6.91728 29.9162C7.32836 30.1213 8.02843 30.4085 8.47439 30.5539C8.9191 30.6994 9.84464 30.9356 10.5298 31.0773C11.2149 31.2203 11.8029 31.3682 11.8377 31.4067C11.8714 31.4453 11.5076 31.4366 11.028 31.3893C10.5484 31.3408 9.53944 31.1457 8.78581 30.9555C8.03217 30.7653 6.91105 30.3737 6.29444 30.0853C5.67783 29.7969 4.83699 29.322 4.42592 29.0286C4.01484 28.7365 3.35214 28.1385 2.95352 27.701C2.53497 27.2423 2.01926 26.4839 1.73524 25.9109C1.38022 25.1923 1.22202 24.6926 1.16721 24.1083C1.12486 23.6645 1.15476 22.8528 1.23199 22.3058C1.30922 21.7588 1.516 20.8911 1.68915 20.379C1.86355 19.8656 2.20487 19.0824 2.44777 18.6386C2.69193 18.1948 3.18896 17.439 3.55394 16.9604C3.91768 16.4818 4.76723 15.5569 5.44239 14.9042C6.11631 14.2516 7.20005 13.3056 7.85154 12.8009C8.50179 12.2974 10.1274 11.1612 11.464 10.2786C13.1594 9.15728 14.6081 8.32191 16.2599 7.51263C17.5616 6.87491 19.5522 5.99105 20.6821 5.54725C21.8119 5.1047 23.6057 4.45952 24.6683 4.11393C25.7296 3.76834 27.496 3.26488 28.5922 2.99636C29.6884 2.7266 31.3974 2.36112 32.3915 2.18336C33.3855 2.00559 34.8704 1.77561 35.6926 1.67368C36.5147 1.5705 37.9996 1.43127 38.9936 1.3629C39.9877 1.29328 41.8923 1.23734 43.2289 1.23858C45.4998 1.23983 45.7315 1.21745 46.7791 0.907913C47.3957 0.725174 48.3487 0.4492 48.8968 0.29381C49.4449 0.137176 50.0478 0.00664782 50.2359 0.000432198ZM106.759 16.5303C107.135 16.5303 107.668 16.5974 107.942 16.6794C108.241 16.7689 108.677 17.0673 109.032 17.4228C109.458 17.8517 109.676 18.1998 109.812 18.6697C109.915 19.0289 110 19.4342 110 19.5709C110 19.7077 109.917 20.0993 109.816 20.4411C109.714 20.783 109.447 21.2827 109.223 21.5512C108.998 21.8197 108.534 22.1691 108.191 22.3269C107.77 22.5209 107.335 22.6141 106.852 22.6153C106.459 22.6166 105.925 22.5296 105.669 22.4239C105.412 22.3182 105.012 22.0522 104.782 21.8334C104.55 21.6146 104.229 21.1559 104.067 20.8141C103.891 20.4449 103.772 19.965 103.773 19.6331C103.773 19.3248 103.843 18.8549 103.927 18.5864C104.011 18.3191 104.305 17.848 104.579 17.5397C104.853 17.2326 105.301 16.8796 105.575 16.7553C105.861 16.6272 106.366 16.5303 106.759 16.5303ZM104.946 18.0344C104.787 18.2644 104.588 18.7032 104.502 19.0115C104.376 19.4628 104.377 19.6791 104.505 20.1303C104.594 20.4374 104.814 20.8824 104.996 21.1174C105.178 21.3523 105.55 21.6457 105.824 21.7675C106.099 21.8894 106.574 21.9901 106.883 21.9901C107.216 21.9913 107.669 21.8782 107.999 21.7141C108.366 21.5313 108.675 21.2442 108.905 20.8762C109.185 20.425 109.254 20.1726 109.254 19.5709C109.254 18.9693 109.185 18.7169 108.905 18.2657C108.675 17.8977 108.366 17.6105 107.999 17.4278C107.669 17.2637 107.216 17.1506 106.883 17.1518C106.574 17.1518 106.077 17.2575 105.778 17.3843C105.471 17.5161 105.109 17.7982 104.946 18.0344Z" fill="#181818"></path><path fill-rule="evenodd" clip-rule="evenodd" d="M47.7445 7.2056C48.0385 7.20187 47.9189 7.32991 46.9 8.10313C45.7315 8.99072 45.5584 9.19833 35.9417 21.2492C30.5678 27.9844 26.2241 33.5076 26.2914 33.525C26.3574 33.5424 26.7772 33.3323 27.2219 33.0589C27.6666 32.7854 28.2421 32.482 28.4987 32.3863C28.7554 32.2894 29.1203 32.1775 29.3084 32.1377C29.4965 32.0967 29.8478 32.1066 30.0895 32.1576C30.4271 32.2297 30.5554 32.3366 30.6513 32.6238C30.7198 32.8289 30.7759 33.1359 30.7759 33.3075C30.7759 33.4778 30.6887 33.8694 30.584 34.1777C30.4794 34.486 29.9176 35.3661 29.3371 36.1356C28.7566 36.9051 28.2808 37.59 28.2808 37.6584C28.2808 37.733 28.4689 37.7529 28.7479 37.7081C29.0045 37.6659 29.5887 37.4284 30.0446 37.1798C30.5018 36.9299 30.9091 36.7547 30.949 36.7882C30.9901 36.8218 30.9814 36.9536 30.9291 37.0791C30.8768 37.2059 30.3013 37.5975 29.651 37.9493C29.0008 38.3024 28.2147 38.6865 27.907 38.8033C27.5994 38.9202 27.192 39.0184 27.0039 39.0209C26.8158 39.0234 26.5767 38.9973 26.4745 38.9637C26.3562 38.9239 26.2877 38.7424 26.2877 38.4664C26.2877 38.2265 26.3861 37.8213 26.5069 37.5652C26.6277 37.3091 27.07 36.6788 27.4897 36.1667C27.9083 35.6533 28.3704 34.9969 28.5149 34.706C28.6607 34.4151 28.779 34.0098 28.779 33.8047C28.779 33.4529 28.7516 33.4318 28.2808 33.4318C28.0067 33.4318 27.5446 33.5511 27.2531 33.6978C26.9616 33.8445 26.5555 34.0906 26.3499 34.2436C26.1444 34.3965 25.7383 34.6401 25.4468 34.7856C25.1553 34.9298 24.7355 35.2306 24.5126 35.4544C24.2896 35.6769 23.7714 36.3332 23.3603 36.9113C22.9492 37.4881 22.4173 38.1482 22.1769 38.3769C21.9365 38.6044 21.5453 38.8481 21.3049 38.9189C21.0645 38.9886 20.6522 39.0271 19.9048 38.9637L31.3202 24.6056C40.3464 13.2534 42.9437 10.0648 43.7235 9.37734C44.2654 8.89873 45.0339 8.31074 45.4301 8.07206C45.8274 7.83338 46.4328 7.54124 46.7766 7.42315C47.1205 7.30629 47.5564 7.20808 47.7445 7.2056ZM85.0453 22.5259C85.4003 22.542 85.7653 22.6203 85.855 22.7011C85.9882 22.8205 85.9696 22.9112 85.7528 23.1984C85.5049 23.5253 85.4102 23.5539 84.3203 23.6322C83.2826 23.7068 83.0422 23.7727 82.149 24.2302C81.4839 24.572 80.8423 25.037 80.2494 25.6076C79.5281 26.3025 79.2441 26.6941 78.7919 27.6202C78.483 28.2529 78.1243 29.189 77.9935 29.7024C77.8639 30.2146 77.6957 31.1805 77.621 31.8468C77.5463 32.5131 77.4852 34.9745 77.4852 37.3166C77.484 40.499 77.4366 41.8651 77.2984 42.7241C77.195 43.3569 76.9085 44.5031 76.6606 45.2725C76.4127 46.042 76.0452 47.0353 75.8434 47.4791C75.6416 47.9229 75.1782 48.7346 74.812 49.2816C74.447 49.8286 73.7345 50.6951 73.2287 51.2085C72.723 51.7206 71.9183 52.4329 71.4412 52.7897C70.9628 53.1465 70.1232 53.6587 69.5751 53.9284C69.027 54.1969 68.1588 54.5487 67.6443 54.7091C66.806 54.9702 66.4734 55 64.4055 55C62.5769 54.9988 61.9341 54.9528 61.2913 54.7762C60.8466 54.6544 60.1727 54.4132 59.7965 54.2404C59.4203 54.0689 58.9295 53.7904 58.7066 53.6251C58.4836 53.4585 58.3154 53.2944 58.3328 53.2609C58.3503 53.2273 58.6729 53.3628 59.0491 53.5605C59.4253 53.7594 60.1553 54.0527 60.6685 54.2131C61.5006 54.4717 61.8407 54.5028 63.7827 54.4978C65.4532 54.494 66.152 54.4431 66.7723 54.2765C67.2183 54.1572 67.9458 53.8886 68.3917 53.6798C68.8377 53.471 69.5091 53.0955 69.8841 52.8444C70.259 52.5946 70.9242 52.0538 71.3614 51.6436C71.7987 51.2333 72.4253 50.5335 72.7529 50.0897C73.0805 49.6459 73.5451 48.9174 73.7868 48.4736C74.0284 48.0298 74.3959 47.1621 74.604 46.5468C74.812 45.9314 75.0947 44.9804 75.2318 44.4334C75.3688 43.8865 75.5656 42.795 75.669 42.0093C75.7736 41.2237 75.9144 38.9861 75.9842 37.0369C76.0539 35.0876 76.1449 33.0191 76.1885 32.4373C76.2308 31.8555 76.3653 30.9891 76.4874 30.5105C76.6083 30.0318 76.9334 29.1927 77.2074 28.6458C77.4827 28.0988 77.9548 27.3156 78.2575 26.9054C78.5602 26.4952 79.1121 25.8549 79.4858 25.4833C79.8582 25.1103 80.4998 24.5596 80.9108 24.2575C81.3219 23.9555 81.9946 23.539 82.4057 23.3314C82.8167 23.1238 83.4333 22.8516 83.7759 22.726C84.1484 22.5893 84.6591 22.5085 85.0453 22.5259ZM41.7653 32.0805C42.1664 32.0693 42.3557 32.1141 42.352 32.2197C42.3495 32.3055 41.8824 32.906 41.3143 33.5561C40.7463 34.2063 40.0537 35.0454 39.7759 35.4208C39.4969 35.7962 39.0958 36.4538 38.8828 36.8815C38.6697 37.3091 38.5091 37.6783 38.5265 37.7019C38.5439 37.7255 38.7258 37.7007 38.9313 37.6447C39.1369 37.59 39.6974 37.2942 40.177 36.9884C40.6566 36.6826 41.0627 36.4414 41.0789 36.4538C41.0951 36.4675 41.0752 36.6453 41.0353 36.8504C40.9743 37.1649 40.7774 37.3302 39.7772 37.907C39.1244 38.2825 38.4443 38.6529 38.2637 38.7287C38.083 38.8046 37.7106 38.9078 37.4365 38.9587C37.1338 39.0147 36.8286 38.9973 36.658 38.914C36.4599 38.817 36.3777 38.6678 36.3777 38.4043C36.3777 38.1992 36.4337 37.9195 36.5023 37.7827C36.5708 37.646 36.6131 37.508 36.5957 37.4757C36.5782 37.4446 36.1161 37.6907 35.568 38.0251C35.0199 38.3583 34.2488 38.72 33.8552 38.8282C33.2124 39.006 33.0692 39.0072 31.7687 38.6529V38.0314C31.7687 37.6895 31.8534 37.2146 31.9555 36.9747C32.0577 36.7348 32.4089 36.2524 32.7341 35.9019C33.0592 35.5513 33.6347 35.0304 34.0109 34.7445C34.3871 34.4599 34.9476 34.0807 35.2566 33.9029C35.5655 33.7264 36.293 33.3858 36.876 33.1484C37.4589 32.9097 38.3272 32.6188 38.8068 32.5019C39.2864 32.3838 40.0151 32.2446 40.4262 32.1924C40.8372 32.1389 41.4401 32.0892 41.7653 32.0805ZM36.6331 34.0857C36.2593 34.307 35.6141 34.8266 35.2005 35.2405C34.7272 35.7129 34.2962 36.3022 34.042 36.8255C33.7082 37.5117 33.6646 37.692 33.7929 37.8499C33.8789 37.9555 34.0744 38.0401 34.2289 38.0363C34.3834 38.0338 34.8879 37.7902 35.35 37.4968C35.8122 37.2022 36.5832 36.5943 37.0628 36.1455C37.5424 35.6955 38.3583 34.8179 38.8778 34.1938L39.8195 33.0589C39.2278 33.0626 38.6635 33.2031 38.1839 33.3734C37.7043 33.5437 37.0068 33.8644 36.6331 34.0857ZM47.6312 32.2943C47.7109 32.4423 47.6162 32.6884 47.2899 33.1832C47.042 33.5586 46.8962 33.8806 46.9647 33.898C47.0345 33.9154 47.4692 33.6531 47.9314 33.3174C48.3935 32.9805 49.0239 32.5902 49.3328 32.4497C49.6417 32.3093 50.145 32.1936 50.4539 32.1936C50.7628 32.1924 51.0867 32.2334 51.1752 32.2844C51.2873 32.3478 51.0917 32.6325 50.51 33.2453C49.7277 34.0708 49.6803 34.1018 49.572 33.8358C49.4997 33.6605 49.3527 33.5573 49.1771 33.5598C49.0226 33.5623 48.5879 33.7289 48.2117 33.9315C47.8355 34.1329 47.1616 34.5954 46.7169 34.9583C46.2721 35.3226 45.4575 36.1766 44.9081 36.8566C44.3588 37.5366 43.8107 38.2327 43.6898 38.4043C43.508 38.6616 43.3024 38.7399 42.5089 38.858C41.9795 38.9363 41.5186 38.9799 41.485 38.955C41.4514 38.9289 41.5323 38.7524 41.6656 38.5634C41.7989 38.3732 42.2748 37.7976 42.7232 37.2855C43.1716 36.7721 43.8119 35.9889 44.147 35.5451C44.4809 35.1013 44.8608 34.527 44.9891 34.2709C45.1174 34.0148 45.222 33.7202 45.222 33.6183C45.222 33.4778 45.1361 33.4517 44.8795 33.5114C44.6914 33.5561 44.2703 33.7239 43.9452 33.8843C43.6201 34.0459 43.3249 34.164 43.29 34.1466C43.2551 34.1292 43.2688 33.985 43.3211 33.8259C43.3921 33.6071 43.706 33.4144 44.5992 33.0377C45.2507 32.7642 46.1737 32.4398 46.6521 32.3155C47.4568 32.1054 47.5303 32.1041 47.6312 32.2943ZM74.0945 32.1103C74.2514 32.1191 74.3772 32.1688 74.3747 32.2197C74.3723 32.2707 73.5003 33.4455 72.4352 34.8303C71.3702 36.2151 70.5019 37.4458 70.5044 37.5652C70.5081 37.7492 70.5729 37.7666 70.9142 37.6783C71.1372 37.6224 71.4598 37.5018 71.6305 37.4123C71.8024 37.3215 72.1799 37.0891 72.4713 36.8939C72.7628 36.6987 73.0331 36.5533 73.073 36.5707C73.1116 36.5881 73.0979 36.7609 73.0419 36.9548C72.9559 37.2482 72.6781 37.4446 71.4125 38.1047C70.0759 38.8033 69.8018 38.9015 69.2014 38.9015C68.5948 38.9015 68.5088 38.8692 68.4465 38.6218C68.4092 38.4677 68.4378 38.1743 68.5113 37.9692C68.5848 37.7641 68.616 37.5826 68.5798 37.5652C68.545 37.5478 68.1663 37.7554 67.7377 38.0251C67.3092 38.2949 66.7076 38.6032 66.3986 38.7113C66.0897 38.8183 65.5865 38.9065 65.2775 38.9065C64.9686 38.9053 64.5488 38.8493 64.3433 38.781C64.0667 38.689 63.9446 38.5522 63.8749 38.2514C63.8151 37.9941 63.8462 37.6174 63.9608 37.2233C64.0642 36.8703 64.3507 36.3606 64.6273 36.0424C64.8939 35.7341 65.5279 35.1722 66.0349 34.7918C66.5431 34.4114 67.2108 33.9576 67.5198 33.7836C67.8287 33.6096 68.444 33.3224 68.89 33.1471C69.336 32.9718 70.1481 32.7108 70.6962 32.5678C71.2443 32.4236 72.1699 32.2583 72.7516 32.1999C73.3334 32.1414 73.9388 32.1004 74.0945 32.1103ZM69.3958 33.7165C68.7007 34.0633 68.0529 34.5133 67.4849 35.0479C66.911 35.5865 66.5029 36.1045 66.2604 36.6018C66.0598 37.012 65.8966 37.5018 65.8979 37.6895C65.8991 37.8784 65.9701 38.0314 66.0561 38.0326C66.142 38.0326 66.6042 37.8436 67.0838 37.6124C67.5634 37.3824 68.2659 36.92 68.6434 36.5868C69.022 36.2524 69.7171 35.56 70.188 35.0479C70.6589 34.5344 71.2306 33.8917 71.4586 33.6183C71.6853 33.3448 71.8734 33.0787 71.8759 33.0278C71.8784 32.9768 71.8373 32.9408 71.7862 32.9482C71.7351 32.9557 71.4125 33.0141 71.07 33.0787C70.7274 33.1421 69.9737 33.4293 69.3958 33.7165ZM94.2396 32.0731C94.4452 32.0668 94.9073 32.1178 95.2673 32.1874C95.722 32.2744 96.0135 32.4174 96.2253 32.6548C96.3922 32.8426 96.5603 33.1223 96.599 33.2764C96.6376 33.4305 96.6139 33.7662 96.5479 34.0223C96.4819 34.2784 96.2016 34.8664 95.9251 35.3276C95.6485 35.7888 95.423 36.1803 95.423 36.1977C95.423 36.2151 96.67 36.2077 98.1947 36.1816C99.8963 36.153 101.471 36.1928 102.274 36.286C102.993 36.3693 104.087 36.5657 104.703 36.7211C105.32 36.8777 106.273 37.191 106.821 37.4185C107.383 37.6522 108.034 38.0338 108.316 38.2949C108.59 38.5497 108.785 38.7872 108.752 38.822C108.718 38.8568 108.326 38.6566 107.88 38.3769C107.434 38.0972 106.678 37.7144 106.198 37.5266C105.719 37.3377 104.849 37.0816 104.267 36.9548C103.419 36.7721 102.675 36.7261 100.53 36.7298C98.5908 36.731 97.4398 36.7944 96.3573 36.9573C95.2698 37.1214 94.5909 37.3029 93.8659 37.6224C93.3178 37.8635 92.3649 38.2564 91.7483 38.495C90.9523 38.8033 90.3556 38.9463 89.6929 38.9898C89.0887 39.0283 88.5843 38.9898 88.2654 38.8816C87.9465 38.7747 87.6687 38.5609 87.4831 38.28C87.3074 38.0152 87.1953 37.6621 87.1978 37.3787C87.2003 37.1226 87.285 36.731 87.3859 36.5085C87.488 36.286 87.9265 35.7129 88.3613 35.2343C88.7948 34.7557 89.511 34.0931 89.9508 33.7625C90.3917 33.4318 91.1155 32.9905 91.5614 32.7816C92.0074 32.5728 92.7075 32.3304 93.1185 32.2434C93.5296 32.1563 94.0341 32.0793 94.2396 32.0731ZM92.0697 33.5561C91.6997 33.796 91.1391 34.2734 90.8252 34.6177C90.5101 34.9621 90.0492 35.6334 89.7988 36.1095C89.5484 36.5856 89.2843 37.1985 89.2121 37.4719C89.1137 37.8436 89.1174 38.0102 89.2308 38.1296C89.3142 38.2191 89.592 38.2887 89.8486 38.2849C90.1052 38.2825 90.5823 38.1457 90.9074 37.9816C91.2326 37.8188 91.7794 37.4632 92.122 37.1935C92.4645 36.9225 93.0189 36.3444 93.354 35.9056C93.6903 35.468 94.1525 34.7048 94.3817 34.2087C94.708 33.5064 94.7728 33.2528 94.6756 33.0589C94.6071 32.9221 94.495 32.8102 94.4265 32.8102C94.358 32.8102 94.2322 32.7841 94.1462 32.7518C94.0603 32.7195 93.7102 32.7891 93.3664 32.9072C93.0239 33.0253 92.4396 33.3162 92.0697 33.5561ZM54.9695 32.1912C55.261 32.1887 55.3121 32.2396 55.3121 32.5305C55.3133 32.7182 55.1725 33.0825 55.0006 33.3386C54.83 33.5946 54.7029 33.8346 54.7204 33.8706C54.7378 33.9067 55.3407 33.6319 56.0595 33.259C56.7782 32.8861 57.6764 32.4895 58.0526 32.3789C58.4288 32.2682 58.9333 32.1949 59.1737 32.2148C59.576 32.2483 59.6072 32.2794 59.5773 32.6238C59.5586 32.8289 59.4054 33.1782 59.2347 33.4007C59.0641 33.6232 58.9557 33.847 58.9943 33.898C59.0317 33.9489 59.7467 33.6456 60.5825 33.2242C61.4172 32.8028 62.3253 32.3975 62.5993 32.3242C62.8734 32.2496 63.2794 32.1899 63.5024 32.1899C63.84 32.1887 63.9073 32.2347 63.906 32.4684C63.9048 32.6225 63.7914 32.9718 63.6556 33.2453C63.5186 33.5188 62.9842 34.246 62.4685 34.8614C61.9516 35.4767 61.3424 36.2599 61.1145 36.6018C60.8877 36.9436 60.666 37.3489 60.6224 37.503C60.5664 37.7032 60.5962 37.7827 60.7308 37.7827C60.8329 37.7827 61.4084 37.5291 62.0076 37.2208C62.6068 36.9113 63.1051 36.6739 63.1138 36.6925C63.1237 36.7112 63.0901 36.838 63.0403 36.9747C62.9892 37.1164 62.3626 37.5577 61.5915 37.9978C60.8441 38.4242 59.9522 38.8344 59.6097 38.9115C59.2671 38.9886 58.861 39.0172 58.7066 38.9761C58.4798 38.9152 58.4263 38.8133 58.425 38.4354C58.4238 38.1793 58.5633 37.6895 58.7352 37.3476C58.9059 37.0058 59.4814 36.2413 60.0133 35.6495C60.5452 35.0566 61.1057 34.343 61.2602 34.0645C61.5143 33.6033 61.5205 33.5561 61.3225 33.5549C61.2029 33.5549 60.7121 33.7426 60.2325 33.9738C59.7529 34.2038 59.0242 34.6438 58.6131 34.9521C58.202 35.2604 57.5256 35.8981 57.1108 36.3681C56.6948 36.838 56.1006 37.559 55.7904 37.9692C55.2286 38.7101 55.2186 38.7163 54.3865 38.8394C53.9256 38.9078 53.5307 38.9351 53.5096 38.9015C53.4884 38.868 54.0552 38.1395 54.7702 37.2855C55.4852 36.4302 56.3435 35.34 56.6773 34.8614C57.0112 34.3828 57.3301 33.8843 57.3874 33.7538C57.4845 33.5337 57.4534 33.5238 56.9314 33.6133C56.6225 33.6667 56.0483 33.8719 55.6546 34.0683C55.2261 34.2833 54.4824 34.8626 53.8023 35.514C53.177 36.112 52.3498 37.0157 51.9649 37.5204C51.5788 38.0264 51.0394 38.5696 50.7653 38.73C50.4365 38.9214 50.0665 39.0209 49.6754 39.0234C49.1522 39.0259 49.0961 39.001 49.1945 38.8083C49.2556 38.689 49.9033 37.8362 50.6345 36.9125C51.3645 35.9889 52.1543 34.8987 52.3884 34.4884C52.6226 34.0782 52.8157 33.673 52.8182 33.5872C52.8195 33.4877 52.7186 33.4567 52.5404 33.5002C52.386 33.5375 51.9948 33.6916 51.6709 33.842C51.3458 33.9924 51.0381 34.0745 50.9858 34.0235C50.9322 33.9726 50.9322 33.847 50.9833 33.7438C51.0344 33.6406 51.3994 33.4119 51.793 33.2354C52.1866 33.0589 52.9851 32.753 53.5681 32.5541C54.1511 32.3565 54.7814 32.1924 54.9695 32.1912ZM87.1393 32.1961C87.7148 32.1887 88.0959 32.2446 88.2604 32.3627C88.507 32.5392 88.5058 32.5454 88.1981 32.8711C88.0262 33.0539 87.635 33.3672 87.3261 33.5685C87.0172 33.7699 86.7369 33.9315 86.7033 33.929C86.6696 33.9266 86.6634 33.7998 86.6921 33.6469C86.7195 33.4939 86.6497 33.2155 86.5363 33.0278C86.4068 32.814 86.2237 32.6872 86.0493 32.6896C85.8948 32.6909 85.4053 32.8724 84.9593 33.0924C84.4536 33.3435 83.8145 33.8196 83.2577 34.3641C82.5962 35.0093 82.2512 35.4742 81.9186 36.1667C81.672 36.6788 81.4689 37.2382 81.4664 37.4098C81.4652 37.5801 81.581 37.8325 81.7268 37.9692C81.9684 38.1992 82.0432 38.2066 82.6959 38.0662C83.0846 37.9841 83.893 37.6621 84.4922 37.3514C85.0914 37.0418 85.6108 36.7882 85.6444 36.7882C85.6781 36.7882 85.6718 36.9138 85.6307 37.0679C85.5884 37.2221 85.4339 37.4757 85.2882 37.6323C85.1412 37.7877 84.77 38.0065 84.461 38.1171C84.1521 38.2265 83.4944 38.4764 82.9974 38.6716C82.3533 38.9239 81.8887 39.0234 81.378 39.0159C80.9843 39.0109 80.4649 38.9363 80.2257 38.8506C79.9865 38.7648 79.72 38.5597 79.6353 38.3943C79.5518 38.229 79.482 37.8697 79.4833 37.5963C79.4833 37.3228 79.5942 36.8616 79.7299 36.5707C79.8657 36.2798 80.4113 35.5899 80.942 35.0367C81.4726 34.4835 82.2437 33.8234 82.6548 33.5685C83.0659 33.3137 83.7111 32.9768 84.0873 32.8189C84.4635 32.6598 85.1088 32.4584 85.5199 32.3702C85.9309 32.2807 86.6597 32.2036 87.1393 32.1961Z" fill="#181818"></path><path fill-rule="evenodd" clip-rule="evenodd" d="M106.593 17.9113C107.549 17.9511 107.677 17.9847 107.896 18.2656C108.031 18.4359 108.138 18.7306 108.134 18.9183C108.13 19.142 107.999 19.367 107.755 19.5709C107.42 19.8494 107.403 19.8979 107.583 20.0371C107.695 20.1229 107.891 20.4026 108.019 20.6586C108.149 20.9147 108.254 21.1522 108.254 21.187C108.254 21.2205 108.099 21.2504 107.911 21.2516C107.634 21.2529 107.484 21.1261 107.132 20.599C106.85 20.1738 106.598 19.9327 106.416 19.9128C106.156 19.8842 106.136 19.9302 106.136 20.5654C106.136 21.2355 106.13 21.2491 105.451 21.187L105.423 19.7027C105.408 18.886 105.427 18.1388 105.464 18.0431C105.518 17.9064 105.766 17.8765 106.593 17.9113ZM106.131 19.4466C106.956 19.2925 107.251 19.193 107.319 19.1259C107.402 19.0447 107.398 18.9328 107.307 18.7902C107.222 18.6585 106.973 18.5615 106.66 18.5379L106.151 18.5006L106.131 19.4466Z" fill="#181818"></path></svg>